REM DIRINDEX 1\2,1\3,1\4,1\5
REM DIRNAME folder01,folder02,folder03,folder04,folder05
TITLE ""
FILE "P1Q_t_1481-1490.mp3" MP3
  TRACK 01 AUDIO
    TITLE "3:cjc005_5351"
    INDEX 01 00:00:00
  TRACK 02 AUDIO
    TITLE "0:"
    INDEX 01 00:00:70
  TRACK 03 AUDIO
    TITLE "4:cjc005_5352"
    INDEX 01 00:01:21
  TRACK 04 AUDIO
    TITLE "0:"
    INDEX 01 00:02:45
  TRACK 05 AUDIO
    TITLE "5:cjc005_5353"
    INDEX 01 00:02:73
  TRACK 06 AUDIO
    TITLE "0:"
    INDEX 01 00:06:16
  TRACK 07 AUDIO
    TITLE "3:cjc005_5354"
    INDEX 01 00:07:00
  TRACK 08 AUDIO
    TITLE "0:"
    INDEX 01 00:08:09
  TRACK 09 AUDIO
    TITLE "4:cjc005_5355"
    INDEX 01 00:08:30
  TRACK 10 AUDIO
    TITLE "0:"
    INDEX 01 00:09:53
  TRACK 11 AUDIO
    TITLE "5:cjc005_5356"
    INDEX 01 00:10:04
  TRACK 12 AUDIO
    TITLE "0:"
    INDEX 01 00:13:41
  TRACK 13 AUDIO
    TITLE "3:cjc005_5357"
    INDEX 01 00:14:17
  TRACK 14 AUDIO
    TITLE "0:"
    INDEX 01 00:15:23
  TRACK 15 AUDIO
    TITLE "4:cjc005_5358"
    INDEX 01 00:15:46
  TRACK 16 AUDIO
    TITLE "0:"
    INDEX 01 00:17:04
  TRACK 17 AUDIO
    TITLE "5:cjc005_5359"
    INDEX 01 00:17:25
  TRACK 18 AUDIO
    TITLE "0:"
    INDEX 01 00:21:64
  TRACK 19 AUDIO
    TITLE "3:cjc005_5360"
    INDEX 01 00:22:38
  TRACK 20 AUDIO
    TITLE "0:"
    INDEX 01 00:23:44
  TRACK 21 AUDIO
    TITLE "4:cjc005_5361"
    INDEX 01 00:23:73
  TRACK 22 AUDIO
    TITLE "0:"
    INDEX 01 00:25:35
  TRACK 23 AUDIO
    TITLE "5:cjc005_5362"
    INDEX 01 00:25:54
  TRACK 24 AUDIO
    TITLE "0:"
    INDEX 01 00:30:63
  TRACK 25 AUDIO
    TITLE "3:cjc005_5363"
    INDEX 01 00:31:39
  TRACK 26 AUDIO
    TITLE "0:"
    INDEX 01 00:32:58
  TRACK 27 AUDIO
    TITLE "4:cjc005_5364"
    INDEX 01 00:33:13
  TRACK 28 AUDIO
    TITLE "0:"
    INDEX 01 00:34:67
  TRACK 29 AUDIO
    TITLE "5:cjc005_5365"
    INDEX 01 00:35:19
  TRACK 30 AUDIO
    TITLE "0:"
    INDEX 01 00:39:47
  TRACK 31 AUDIO
    TITLE "3:cjc005_5366"
    INDEX 01 00:40:26
  TRACK 32 AUDIO
    TITLE "0:"
    INDEX 01 00:41:63
  TRACK 33 AUDIO
    TITLE "4:cjc005_5367"
    INDEX 01 00:42:12
  TRACK 34 AUDIO
    TITLE "0:"
    INDEX 01 00:43:31
  TRACK 35 AUDIO
    TITLE "5:cjc005_5368"
    INDEX 01 00:43:50
  TRACK 36 AUDIO
    TITLE "0:"
    INDEX 01 00:48:20
  TRACK 37 AUDIO
    TITLE "3:cjc005_5369"
    INDEX 01 00:49:10
  TRACK 38 AUDIO
    TITLE "0:"
    INDEX 01 00:50:33
  TRACK 39 AUDIO
    TITLE "4:cjc005_5370"
    INDEX 01 00:50:50
  TRACK 40 AUDIO
    TITLE "0:"
    INDEX 01 00:52:00
  TRACK 41 AUDIO
    TITLE "5:cjc005_5371"
    INDEX 01 00:52:22
  TRACK 42 AUDIO
    TITLE "0:"
    INDEX 01 00:56:25
  TRACK 43 AUDIO
    TITLE "3:cjc005_5372"
    INDEX 01 00:56:71
  TRACK 44 AUDIO
    TITLE "0:"
    INDEX 01 00:58:22
  TRACK 45 AUDIO
    TITLE "4:cjc005_5373"
    INDEX 01 00:58:52
  TRACK 46 AUDIO
    TITLE "0:"
    INDEX 01 00:59:71
  TRACK 47 AUDIO
    TITLE "5:cjc005_5374"
    INDEX 01 01:00:21
  TRACK 48 AUDIO
    TITLE "0:"
    INDEX 01 01:04:01
  TRACK 49 AUDIO
    TITLE "3:cjc005_5375"
    INDEX 01 01:04:54
  TRACK 50 AUDIO
    TITLE "0:"
    INDEX 01 01:05:69
  TRACK 51 AUDIO
    TITLE "4:cjc005_5376"
    INDEX 01 01:06:22
  TRACK 52 AUDIO
    TITLE "0:"
    INDEX 01 01:07:66
  TRACK 53 AUDIO
    TITLE "5:cjc005_5377"
    INDEX 01 01:08:19
  TRACK 54 AUDIO
    TITLE "0:"
    INDEX 01 01:12:73
  TRACK 55 AUDIO
    TITLE "3:cjc005_5378"
    INDEX 01 01:13:49
  TRACK 56 AUDIO
    TITLE "0:"
    INDEX 01 01:14:70
  TRACK 57 AUDIO
    TITLE "4:cjc005_5379"
    INDEX 01 01:15:19
  TRACK 58 AUDIO
    TITLE "0:"
    INDEX 01 01:16:56
  TRACK 59 AUDIO
    TITLE "5:cjc005_5380"
    INDEX 01 01:17:06
  TRACK 60 AUDIO
    TITLE "0:"
    INDEX 01 01:19:32
